<svg width="240" height="336" viewBox="0 0 240 336" fill="none" xmlns="http://www.w3.org/2000/svg">
<rect width="240" height="336" rx="11" fill="white"/>
<rect width="240" height="336" rx="11" fill="white"/>
<path d="M198 293.673C198 290.287 199.022 287.637 201.101 285.797C203.144 283.92 205.771 283 208.982 283C211.973 283 214.527 283.92 216.716 285.797C218.905 287.674 220 290.802 220 295.255V305.303C220 309.609 218.942 312.774 216.862 314.872C214.783 316.969 211.974 318 208.471 318C204.531 318 201.32 316.454 198.803 313.326L202.816 311.155C204.056 313.4 205.917 314.504 208.435 314.504C210.514 314.504 212.156 313.841 213.323 312.516C214.491 311.191 215.111 308.799 215.111 305.266V300.518C213.36 303.021 210.842 304.272 207.522 304.272C204.677 304.272 202.378 303.352 200.627 301.549C198.876 299.745 198 297.169 198 293.673ZM202.889 293.71C202.889 296.47 203.4 298.347 204.421 299.377C205.443 300.371 206.756 300.886 208.398 300.886C211.9 300.886 214.126 299.267 215.075 296.028C215.075 291.87 214.491 289.257 213.323 288.152C212.156 287.048 210.696 286.496 208.945 286.496C207.267 286.496 205.808 287.048 204.64 288.152C203.473 289.257 202.889 291.097 202.889 293.71Z" fill="#222222"/>
<path d="M217.546 262.462C219.695 259.839 220.204 256.18 217.848 253.784C215.301 251.193 211.425 251.944 209.073 254.336C206.721 251.944 202.845 251.193 200.298 253.784C197.942 256.18 198.451 259.839 200.599 262.462C202.919 265.294 206.095 267.727 209.073 269.837C212.05 267.727 215.227 265.294 217.546 262.462Z" fill="#2C2C2C"/>
<path d="M42 42.327C42 45.7129 40.9784 48.3628 38.8988 50.203C36.8557 52.08 34.2288 53 31.0182 53C28.0265 53 25.4727 52.08 23.2836 50.203C21.0946 48.326 20 45.1977 20 40.7445V30.6971C20 26.3911 21.058 23.2261 23.1376 21.1283C25.2172 19.0305 28.0265 18 31.529 18C35.4692 18 38.6799 19.5457 41.1973 22.674L37.1841 24.8454C35.9436 22.6004 34.0829 21.4963 31.5655 21.4963C29.4859 21.4963 27.8441 22.1588 26.6766 23.4837C25.5091 24.8086 24.8889 27.2008 24.8889 30.734V35.4816C26.6402 32.979 29.1575 31.7276 32.4776 31.7276C35.3233 31.7276 37.6219 32.6478 39.3731 34.4511C41.1244 36.2545 42 38.8307 42 42.327ZM37.1111 42.2903C37.1111 39.53 36.6003 37.653 35.5788 36.6225C34.5572 35.6288 33.2438 35.1136 31.602 35.1136C28.0995 35.1136 25.8739 36.733 24.9253 39.9717C24.9253 44.1305 25.5091 46.7434 26.6766 47.8475C27.8441 48.9516 29.3035 49.5037 31.0548 49.5037C32.733 49.5037 34.1924 48.9516 35.3599 47.8475C36.5273 46.7434 37.1111 44.9033 37.1111 42.2903Z" fill="#222222"/>
<path d="M22.4536 73.5379C20.3052 76.1605 19.7959 79.82 22.1524 82.2165C24.6992 84.8066 28.5754 84.0561 30.9272 81.6643C33.2791 84.056 37.1552 84.8067 39.702 82.2165C42.0585 79.82 41.5492 76.1605 39.4008 73.5379C37.081 70.7059 33.9049 68.2727 30.9272 66.1625C27.9495 68.2727 24.7734 70.7059 22.4536 73.5379Z" fill="#2C2C2C"/>
<path d="M87.415 164.43C95.4167 154.68 106.067 146.161 116.44 138.665C117.459 139.343 118.682 139.739 119.998 139.739C121.314 139.739 122.538 139.343 123.557 138.663C133.931 146.16 144.583 154.679 152.585 164.43C154.542 166.814 156.146 169.423 157.333 172.137C155.801 173.311 154.813 175.16 154.813 177.239C154.813 180.26 156.898 182.794 159.707 183.481C159.597 188.672 157.744 193.679 153.743 197.74C145.964 205.636 134.96 205.443 126.23 200.429C126.357 199.925 126.425 199.396 126.425 198.852C126.425 195.303 123.548 192.427 120 192.427C116.451 192.427 113.575 195.303 113.575 198.852C113.575 199.396 113.642 199.925 113.77 200.429C105.04 205.443 94.0357 205.636 86.2567 197.74C82.2559 193.679 80.4033 188.672 80.2929 183.481C83.1021 182.794 85.1868 180.26 85.1868 177.239C85.1868 175.16 84.1991 173.311 82.6673 172.137C83.8542 169.423 85.4577 166.814 87.415 164.43Z" fill="#2C2C2C"/>
<path d="M117.079 198.852C117.079 198.608 117.109 198.371 117.166 198.145C117.202 197.999 117.249 197.857 117.306 197.721C117.65 196.903 118.356 196.274 119.224 196.036C119.471 195.968 119.731 195.931 120 195.931C121.613 195.931 122.921 197.239 122.921 198.852C122.921 200.465 121.613 201.772 120 201.772C118.387 201.772 117.079 200.465 117.079 198.852Z" fill="#2C2C2C"/>
<path d="M119.846 136.23C118.304 136.151 117.077 134.875 117.077 133.313C117.077 131.7 118.385 130.393 119.998 130.393C121.611 130.393 122.918 131.7 122.918 133.313C122.918 134.874 121.694 136.149 120.153 136.23" fill="#2C2C2C"/>
<path d="M80.5306 179.563C80.8574 179.314 81.13 178.998 81.3279 178.635C81.5538 178.22 81.6822 177.745 81.6822 177.239C81.6822 175.626 80.3746 174.319 78.7616 174.319C77.1486 174.319 75.8411 175.626 75.8411 177.239C75.8411 178.852 77.1486 180.16 78.7616 180.16C79.4266 180.16 80.0396 179.938 80.5306 179.563Z" fill="#2C2C2C"/>
<path d="M158.673 175.843C158.46 176.232 158.334 176.674 158.319 177.145C158.318 177.176 158.318 177.208 158.318 177.239C158.318 178.187 158.769 179.03 159.469 179.563C159.96 179.938 160.573 180.16 161.238 180.16C162.851 180.16 164.159 178.852 164.159 177.239C164.159 175.626 162.851 174.319 161.238 174.319C160.131 174.319 159.168 174.935 158.673 175.843Z" fill="#2C2C2C"/>
<path fill-rule="evenodd" clip-rule="evenodd" d="M164.391 182.839C164.452 189.316 162.281 195.736 157.069 201.026C147.253 210.99 133.74 210.266 123.512 204.233C122.503 204.893 121.296 205.277 120 205.277C118.704 205.277 117.497 204.893 116.488 204.233C106.26 210.266 92.7473 210.99 82.9311 201.026C77.7194 195.736 75.5479 189.316 75.6087 182.839C73.6553 181.737 72.3364 179.642 72.3364 177.239C72.3364 173.893 74.8947 171.144 78.1622 170.841C79.5646 167.466 81.4909 164.279 83.8058 161.458C92.2013 151.229 103.269 142.409 113.754 134.836C113.635 134.347 113.572 133.838 113.572 133.313C113.572 129.764 116.449 126.888 119.998 126.888C123.546 126.888 126.423 129.764 126.423 133.313C126.423 133.837 126.36 134.346 126.242 134.833C136.728 142.407 147.798 151.227 156.194 161.458C158.509 164.279 160.435 167.466 161.838 170.841C165.105 171.144 167.664 173.893 167.664 177.239C167.664 179.642 166.345 181.737 164.391 182.839ZM87.4151 164.429C95.4168 154.68 106.067 146.161 116.44 138.665C117.459 139.343 118.682 139.738 119.998 139.738C121.314 139.738 122.538 139.342 123.557 138.663C133.931 146.16 144.583 154.679 152.585 164.429C152.83 164.728 153.069 165.029 153.302 165.334C154.937 167.468 156.294 169.762 157.333 172.137C157.141 172.284 156.958 172.441 156.785 172.608C155.569 173.777 154.813 175.42 154.813 177.239C154.813 177.428 154.821 177.615 154.837 177.8C155.076 180.57 157.073 182.837 159.707 183.481C159.7 183.805 159.686 184.129 159.666 184.452C159.357 189.294 157.494 193.932 153.743 197.74C152.771 198.727 151.748 199.587 150.686 200.328C145.084 204.233 138.381 204.801 132.15 202.97C130.107 202.37 128.116 201.512 126.23 200.429C126.23 200.429 126.23 200.429 126.23 200.429C126.248 200.358 126.265 200.287 126.28 200.215C126.375 199.775 126.425 199.319 126.425 198.852C126.425 195.303 123.549 192.426 120 192.426C119.113 192.426 118.268 192.606 117.499 192.931C115.601 193.734 114.169 195.423 113.722 197.479C113.625 197.921 113.575 198.381 113.575 198.852C113.575 199.396 113.642 199.924 113.77 200.429C113.77 200.429 113.77 200.429 113.77 200.429C105.04 205.443 94.0358 205.636 86.2568 197.74C82.2559 193.678 80.4033 188.672 80.2929 183.481C80.9952 183.309 81.6523 183.022 82.2428 182.641C83.1058 182.083 83.8267 181.325 84.3392 180.431C84.8785 179.491 85.1869 178.401 85.1869 177.239C85.1869 175.16 84.1991 173.311 82.6673 172.137C82.6673 172.137 82.6673 172.137 82.6673 172.137C83.8543 169.423 85.4578 166.814 87.4151 164.429ZM117.079 198.852C117.079 198.608 117.109 198.371 117.166 198.145C117.202 197.999 117.249 197.857 117.306 197.721C117.65 196.902 118.356 196.274 119.224 196.035C119.471 195.967 119.731 195.931 120 195.931C121.613 195.931 122.921 197.239 122.921 198.852C122.921 200.465 121.613 201.772 120 201.772C118.387 201.772 117.079 200.465 117.079 198.852ZM117.077 133.313C117.077 134.875 118.304 136.151 119.846 136.23L120.153 136.23C121.694 136.149 122.918 134.874 122.918 133.313C122.918 131.7 121.611 130.392 119.998 130.392C118.385 130.392 117.077 131.7 117.077 133.313ZM80.5306 179.563C80.8574 179.314 81.1301 178.998 81.3279 178.635C81.5538 178.22 81.6822 177.745 81.6822 177.239C81.6822 175.626 80.3746 174.319 78.7617 174.319C77.1487 174.319 75.8411 175.626 75.8411 177.239C75.8411 178.852 77.1487 180.16 78.7617 180.16C79.4266 180.16 80.0397 179.938 80.5306 179.563ZM158.319 177.145C158.334 176.674 158.46 176.231 158.673 175.842C159.168 174.934 160.131 174.319 161.238 174.319C162.851 174.319 164.159 175.626 164.159 177.239C164.159 178.852 162.851 180.16 161.238 180.16C160.573 180.16 159.96 179.938 159.469 179.563C158.769 179.03 158.318 178.187 158.318 177.239C158.318 177.208 158.318 177.176 158.319 177.145Z" fill="white"/>
<path fill-rule="evenodd" clip-rule="evenodd" d="M158 159.976C149.715 149.881 138.942 141.188 128.748 133.764C128.756 133.615 128.759 133.464 128.759 133.313C128.759 128.474 124.837 124.552 119.998 124.552C115.159 124.552 111.236 128.474 111.236 133.313C111.236 133.465 111.24 133.617 111.248 133.767C101.055 141.19 90.2839 149.882 81.9998 159.976C79.8128 162.641 77.9516 165.615 76.5167 168.768C72.7647 169.76 70 173.176 70 177.239C70 180.009 71.286 182.477 73.2869 184.08C73.5021 190.697 75.9217 197.24 81.2667 202.666C91.6633 213.22 105.775 212.712 116.523 206.896C117.591 207.358 118.767 207.614 120 207.614C121.233 207.614 122.409 207.358 123.477 206.896C134.225 212.712 148.337 213.22 158.733 202.666C164.078 197.24 166.498 190.697 166.713 184.08C168.714 182.477 170 180.009 170 177.239C170 173.176 167.235 169.76 163.483 168.768C162.048 165.615 160.187 162.641 158 159.976ZM161.838 170.842C161.716 170.549 161.591 170.259 161.462 169.969C160.099 166.917 158.309 164.035 156.194 161.458C147.798 151.228 136.728 142.407 126.242 134.833C126.36 134.346 126.423 133.837 126.423 133.313C126.423 129.765 123.546 126.888 119.998 126.888C116.449 126.888 113.572 129.765 113.572 133.313C113.572 133.838 113.635 134.348 113.754 134.836C103.269 142.409 92.2013 151.229 83.8059 161.458C81.6914 164.035 79.9011 166.917 78.5382 169.969C78.409 170.259 78.2836 170.549 78.1622 170.842C77.9741 170.859 77.7883 170.885 77.6053 170.918C74.6086 171.463 72.3364 174.086 72.3364 177.239C72.3364 179.422 73.4248 181.351 75.0884 182.512C75.2561 182.629 75.4298 182.738 75.6087 182.839C75.6052 183.217 75.6092 183.595 75.621 183.972C75.8116 190.061 78.0234 196.045 82.9311 201.026C92.7473 210.991 106.26 210.266 116.488 204.233C117.497 204.893 118.704 205.277 120 205.277C121.296 205.277 122.503 204.893 123.512 204.233C133.74 210.266 147.253 210.991 157.069 201.026C161.977 196.045 164.188 190.061 164.379 183.972C164.391 183.595 164.395 183.217 164.391 182.839C164.57 182.738 164.744 182.629 164.912 182.512C166.575 181.351 167.664 179.422 167.664 177.239C167.664 174.086 165.391 171.463 162.395 170.918C162.212 170.885 162.026 170.859 161.838 170.842Z" fill="#2C2C2C"/>
</svg>
