<svg width="240" height="336" viewBox="0 0 240 336" fill="none" xmlns="http://www.w3.org/2000/svg">
<rect width="240" height="336" rx="11" fill="white"/>
<rect width="240" height="336" rx="11" fill="white"/>
<path d="M215.069 317.927V301.715L207.562 310.188C204.875 313.195 203.477 315.506 203.366 317.156L203.293 317.927H198.362L198.435 316.79C198.619 314.882 200.386 312.022 203.771 308.207L208.334 302.999L201.784 294.453C198.84 290.639 197.258 287.631 197.11 285.504L197 284H201.931L202.005 285.174C202.152 287.154 203.366 289.648 205.685 292.619L211.61 300.285L215.069 296.36V284.037H220V318H215.069V317.927Z" fill="#222222"/>
<path d="M203.866 263.672L204.245 262.246L202.774 262.147C200.01 261.959 197.825 259.656 197.825 256.844C197.825 253.908 200.205 251.528 203.14 251.528C205.232 251.528 207.045 252.737 207.912 254.499L209.002 256.713L210.092 254.499C210.96 252.737 212.772 251.528 214.865 251.528C217.8 251.528 220.18 253.908 220.18 256.844C220.18 259.656 217.995 261.959 215.231 262.147L213.759 262.246L214.139 263.672C214.255 264.108 214.318 264.568 214.318 265.044C214.318 267.98 211.938 270.36 209.002 270.36C206.067 270.36 203.687 267.98 203.687 265.044C203.687 264.568 203.749 264.108 203.866 263.672Z" fill="#2C2C2C"/>
<path d="M24.9312 18.0734V34.2848L32.4384 25.8123C35.1248 22.8048 36.5232 20.4941 36.6336 18.8436L36.7072 18.0734H41.6384L41.5648 19.2104C41.3808 21.1176 39.6144 23.9785 36.2288 27.7929L31.6656 33.001L38.216 41.5469C41.16 45.3614 42.7424 48.3689 42.8896 50.4962L43 52H38.0688L37.9952 50.8263C37.848 48.8457 36.6336 46.3517 34.3152 43.3808L28.3904 35.7152L24.9312 39.6396V51.9633H20V18H24.9312V18.0734Z" fill="#222222"/>
<path d="M36.1343 72.3284L35.7546 73.7536L37.2261 73.8534C39.9902 74.0409 42.1751 76.344 42.1751 79.1564C42.1751 82.0921 39.7954 84.4719 36.8597 84.4719C34.7676 84.4719 32.9554 83.2633 32.0876 81.5007L30.9976 79.2871L29.9076 81.5007C29.0397 83.2633 27.2276 84.4719 25.1354 84.4719C22.1998 84.4719 19.82 82.0921 19.82 79.1564C19.82 76.344 22.0049 74.0409 24.7691 73.8534L26.2405 73.7536L25.8608 72.3284C25.7445 71.8918 25.6822 71.4319 25.6822 70.9556C25.6822 68.0199 28.062 65.6401 30.9976 65.6401C33.9332 65.6401 36.313 68.0199 36.313 70.9556C36.313 71.4319 36.2506 71.8918 36.1343 72.3284Z" fill="#2C2C2C"/>
<path d="M146.867 164.008C145.766 165.966 143.668 167.289 141.262 167.289C137.713 167.289 134.836 164.413 134.836 160.864C134.836 157.628 137.229 154.95 140.343 154.504C140.41 153.831 140.444 153.146 140.444 152.453C140.444 141.162 131.291 132.009 120 132.009C108.709 132.009 99.5561 141.162 99.5561 152.453C99.5561 153.146 99.5904 153.831 99.6573 154.504C102.771 154.95 105.164 157.628 105.164 160.864C105.164 164.413 102.287 167.289 98.7383 167.289C96.3317 167.289 94.2341 165.966 93.1333 164.008C83.9188 165.989 77.0093 174.187 77.0093 183.995C77.0093 195.286 86.1624 204.439 97.4533 204.439C105.051 204.439 111.689 200.295 115.216 194.125C114.195 192.988 113.575 191.485 113.575 189.836C113.575 186.288 116.451 183.411 120 183.411C123.549 183.411 126.425 186.288 126.425 189.836C126.425 191.485 125.805 192.988 124.784 194.125C128.311 200.295 134.949 204.439 142.547 204.439C153.838 204.439 162.991 195.286 162.991 183.995C162.991 174.187 156.081 165.989 146.867 164.008Z" fill="#2C2C2C"/>
<path d="M141.262 163.785C140.671 163.785 140.121 163.609 139.661 163.307C139.201 163.005 138.831 162.576 138.601 162.071C138.434 161.703 138.341 161.294 138.341 160.864C138.341 159.889 138.819 159.025 139.554 158.495C140.034 158.148 140.624 157.944 141.262 157.944C142.875 157.944 144.182 159.251 144.182 160.864C144.182 162.027 143.502 163.031 142.519 163.501C142.138 163.683 141.712 163.785 141.262 163.785Z" fill="#2C2C2C"/>
<path d="M122.921 189.836C122.921 190.008 122.906 190.177 122.877 190.341C122.638 191.713 121.441 192.757 120 192.757C118.559 192.757 117.362 191.713 117.123 190.341C117.094 190.177 117.079 190.008 117.079 189.836C117.079 188.712 117.715 187.736 118.646 187.248C119.05 187.036 119.511 186.916 120 186.916C120.489 186.916 120.949 187.036 121.354 187.248C122.285 187.736 122.921 188.712 122.921 189.836Z" fill="#2C2C2C"/>
<path d="M98.7383 163.785C98.2883 163.785 97.8621 163.683 97.4814 163.501C96.4975 163.031 95.8177 162.027 95.8177 160.864C95.8177 159.251 97.1253 157.944 98.7383 157.944C99.3759 157.944 99.9658 158.148 100.446 158.495C101.181 159.025 101.659 159.889 101.659 160.864C101.659 161.294 101.566 161.703 101.399 162.071C101.169 162.576 100.799 163.005 100.339 163.307C99.8794 163.609 99.3294 163.785 98.7383 163.785Z" fill="#2C2C2C"/>
<path fill-rule="evenodd" clip-rule="evenodd" d="M117.153 199.577C117.985 198.527 118.735 197.409 119.392 196.233C119.592 196.252 119.795 196.261 120 196.261C120.205 196.261 120.408 196.252 120.608 196.233C121.265 197.409 122.015 198.527 122.847 199.577C127.447 205.386 134.562 209.112 142.547 209.112C156.418 209.112 167.664 197.867 167.664 183.995C167.664 172.32 159.697 162.505 148.904 159.69C148.445 159.57 147.981 159.463 147.512 159.369C147.14 157.81 146.201 156.471 144.924 155.584C144.976 155.162 145.018 154.737 145.049 154.309C145.094 153.696 145.117 153.077 145.117 152.453C145.117 138.582 133.872 127.336 120 127.336C106.128 127.336 94.8832 138.582 94.8832 152.453C94.8832 153.077 94.9059 153.696 94.9507 154.309C94.9819 154.737 95.0239 155.162 95.0764 155.584C93.7994 156.471 92.8596 157.81 92.488 159.369C92.0193 159.463 91.5553 159.57 91.0964 159.69C80.3028 162.505 72.3364 172.32 72.3364 183.995C72.3364 197.867 83.5816 209.112 97.4532 209.112C105.438 209.112 112.553 205.386 117.153 199.577ZM141.262 163.785C140.671 163.785 140.121 163.609 139.661 163.307C139.201 163.005 138.831 162.576 138.601 162.071C138.434 161.703 138.341 161.294 138.341 160.864C138.341 159.889 138.819 159.025 139.554 158.495C140.034 158.148 140.624 157.944 141.262 157.944C142.875 157.944 144.182 159.251 144.182 160.864C144.182 162.027 143.502 163.031 142.519 163.501C142.138 163.683 141.712 163.785 141.262 163.785ZM134.836 160.864C134.836 157.628 137.229 154.95 140.343 154.504C140.41 153.831 140.444 153.146 140.444 152.453C140.444 141.162 131.291 132.009 120 132.009C108.709 132.009 99.5561 141.162 99.5561 152.453C99.5561 153.146 99.5904 153.831 99.6573 154.504C102.771 154.95 105.164 157.628 105.164 160.864C105.164 164.413 102.287 167.289 98.7383 167.289C96.3316 167.289 94.234 165.966 93.1333 164.008C83.9187 165.989 77.0093 174.187 77.0093 183.995C77.0093 195.286 86.1624 204.439 97.4532 204.439C105.051 204.439 111.689 200.295 115.216 194.125C114.195 192.988 113.575 191.485 113.575 189.836C113.575 186.288 116.451 183.411 120 183.411C123.549 183.411 126.425 186.288 126.425 189.836C126.425 191.485 125.805 192.988 124.784 194.125C128.311 200.295 134.949 204.439 142.547 204.439C153.838 204.439 162.991 195.286 162.991 183.995C162.991 174.187 156.081 165.989 146.867 164.008C145.766 165.966 143.668 167.289 141.262 167.289C137.713 167.289 134.836 164.413 134.836 160.864ZM122.921 189.836C122.921 190.008 122.906 190.177 122.877 190.341C122.638 191.713 121.441 192.757 120 192.757C118.559 192.757 117.362 191.713 117.123 190.341C117.094 190.177 117.079 190.008 117.079 189.836C117.079 188.712 117.715 187.736 118.646 187.248C119.05 187.036 119.511 186.916 120 186.916C120.489 186.916 120.949 187.036 121.354 187.248C122.285 187.736 122.921 188.712 122.921 189.836ZM97.4814 163.501C97.8621 163.683 98.2883 163.785 98.7383 163.785C99.3293 163.785 99.8794 163.609 100.339 163.307C100.799 163.005 101.169 162.576 101.399 162.071C101.566 161.703 101.659 161.294 101.659 160.864C101.659 159.889 101.181 159.025 100.446 158.495C99.9658 158.148 99.3759 157.944 98.7383 157.944C97.1253 157.944 95.8177 159.251 95.8177 160.864C95.8177 162.027 96.4975 163.031 97.4814 163.501Z" fill="white"/>
<path fill-rule="evenodd" clip-rule="evenodd" d="M118.985 201.028C119.337 200.584 119.676 200.128 120 199.662C120.324 200.128 120.663 200.584 121.015 201.028C126.04 207.372 133.818 211.448 142.547 211.448C157.709 211.448 170 199.157 170 183.995C170 171.23 161.29 160.506 149.493 157.429C149.43 157.412 149.366 157.396 149.303 157.38C148.844 156.323 148.184 155.375 147.372 154.585C147.374 154.55 147.377 154.515 147.38 154.479C147.428 153.81 147.453 153.134 147.453 152.453C147.453 137.291 135.162 125 120 125C104.838 125 92.5467 137.291 92.5467 152.453C92.5467 153.134 92.5716 153.81 92.6205 154.479C92.623 154.515 92.6257 154.55 92.6283 154.585C91.8162 155.375 91.1561 156.323 90.6974 157.38C90.6338 157.396 90.5702 157.412 90.5068 157.429C78.7097 160.506 70 171.23 70 183.995C70 199.157 82.2912 211.448 97.4533 211.448C106.182 211.448 113.96 207.372 118.985 201.028ZM122.847 199.577C122.318 198.91 121.823 198.215 121.363 197.495C121.31 197.413 121.258 197.33 121.207 197.247C120.999 196.914 120.8 196.576 120.608 196.233C120.408 196.252 120.205 196.261 120 196.261C119.795 196.261 119.592 196.252 119.392 196.233C119.2 196.576 119.001 196.914 118.793 197.247C118.742 197.33 118.69 197.413 118.637 197.495C118.177 198.215 117.682 198.91 117.153 199.577C112.553 205.386 105.438 209.112 97.4533 209.112C83.5816 209.112 72.3364 197.867 72.3364 183.995C72.3364 172.32 80.3028 162.505 91.0964 159.69C91.5553 159.57 92.0193 159.463 92.488 159.369C92.8596 157.81 93.7994 156.471 95.0764 155.584C95.024 155.162 94.982 154.737 94.9507 154.309C94.906 153.696 94.8832 153.078 94.8832 152.453C94.8832 138.582 106.128 127.336 120 127.336C133.872 127.336 145.117 138.582 145.117 152.453C145.117 153.078 145.094 153.696 145.049 154.309C145.018 154.737 144.976 155.162 144.924 155.584C146.201 156.471 147.14 157.81 147.512 159.369C147.981 159.463 148.445 159.57 148.904 159.69C159.697 162.505 167.664 172.32 167.664 183.995C167.664 197.867 156.418 209.112 142.547 209.112C134.562 209.112 127.447 205.386 122.847 199.577Z" fill="#2C2C2C"/>
</svg>
