<svg width="240" height="336" viewBox="0 0 240 336" fill="none" xmlns="http://www.w3.org/2000/svg">
<rect width="240" height="336" rx="11" fill="white"/>
<rect width="240" height="336" rx="11" fill="white"/>
<path d="M220 307.29C220 310.676 218.978 313.326 216.899 315.203C214.856 317.08 212.229 318 209.018 318C206.027 318 203.473 317.08 201.284 315.203C199.095 313.326 198 310.198 198 305.745V295.697C198 291.391 199.058 288.226 201.138 286.128C203.217 284.067 206.027 283 209.529 283C213.469 283 216.68 284.546 219.197 287.674L215.184 289.698C213.944 287.527 212.083 286.459 209.566 286.459C207.486 286.459 205.844 287.122 204.677 288.41C203.509 289.698 202.889 292.127 202.889 295.624V300.371C204.531 297.869 207.085 296.617 210.478 296.617C213.323 296.617 215.622 297.537 217.373 299.341C219.124 301.144 220 303.794 220 307.29ZM215.075 307.327C215.075 304.53 214.564 302.616 213.542 301.623C212.521 300.629 211.207 300.114 209.566 300.114C206.063 300.114 203.801 301.88 202.852 305.376C202.852 309.278 203.436 311.78 204.604 312.884C205.771 313.988 207.231 314.54 208.982 314.54C210.66 314.54 212.083 313.988 213.287 312.884C214.491 311.78 215.075 309.903 215.075 307.327Z" fill="#222222"/>
<path d="M217.547 259.538C219.695 262.161 220.204 265.82 217.848 268.216C215.301 270.807 211.425 270.056 209.073 267.664C206.721 270.056 202.845 270.807 200.298 268.216C197.942 265.82 198.451 262.161 200.599 259.538C202.919 256.706 206.095 254.273 209.073 252.163C212.051 254.273 215.227 256.706 217.547 259.538Z" fill="#F24E1E"/>
<path d="M20 28.7098C20 25.3239 21.0215 22.674 23.1011 20.797C25.1442 18.92 27.7711 18 30.9817 18C33.9734 18 36.5273 18.92 38.7164 20.797C40.9054 22.674 42 25.8023 42 30.2555V40.3029C42 44.6089 40.942 47.774 38.8624 49.8718C36.7827 51.9328 33.9735 53 30.471 53C26.5307 53 23.3201 51.4543 20.8027 48.326L24.8159 46.3019C26.0564 48.4733 27.9171 49.5406 30.4345 49.5406C32.5141 49.5406 34.1559 48.878 35.3234 47.5899C36.4909 46.3018 37.1111 43.8728 37.1111 40.3764V35.6288C35.4693 38.1314 32.9154 39.3828 29.5224 39.3828C26.6766 39.3828 24.3781 38.4627 22.6269 36.6594C20.8756 34.856 20 32.2061 20 28.7098ZM24.9253 28.673C24.9253 31.47 25.4361 33.3838 26.4577 34.3775C27.4792 35.3712 28.7927 35.8864 30.4345 35.8864C33.937 35.8864 36.199 34.1199 37.1476 30.6236C37.1476 26.7224 36.5639 24.2197 35.3964 23.1156C34.2289 22.0115 32.7694 21.4595 31.0182 21.4595C29.3399 21.4595 27.9171 22.0115 26.7131 23.1156C25.5091 24.2197 24.9253 26.0967 24.9253 28.673Z" fill="#222222"/>
<path d="M22.4534 76.4621C20.3051 73.8395 19.7958 70.18 22.1522 67.7835C24.6991 65.1934 28.5753 65.9439 30.9271 68.3357C33.2789 65.944 37.155 65.1933 39.7019 67.7835C42.0584 70.18 41.5491 73.8395 39.4007 76.4621C37.0808 79.2941 33.9047 81.7273 30.9271 83.8375C27.9494 81.7273 24.7733 79.2941 22.4534 76.4621Z" fill="#F24E1E"/>
<path d="M153.743 138.26C145.964 130.364 134.96 130.557 126.23 135.571C126.357 136.075 126.425 136.604 126.425 137.148C126.425 140.696 123.548 143.573 120 143.573C116.451 143.573 113.575 140.696 113.575 137.148C113.575 136.604 113.642 136.075 113.77 135.57C105.04 130.557 94.0357 130.364 86.2567 138.26C82.2559 142.321 80.4033 147.327 80.2929 152.519C83.1021 153.206 85.1868 155.74 85.1868 158.76C85.1868 160.84 84.1991 162.688 82.6673 163.863C83.8542 166.577 85.4577 169.185 87.415 171.57C95.4167 181.32 106.067 189.838 116.44 197.335C117.459 196.657 118.682 196.261 119.998 196.261C121.314 196.261 122.538 196.657 123.557 197.337C133.931 189.84 144.583 181.321 152.585 171.57C154.542 169.185 156.146 166.577 157.333 163.863C155.801 162.688 154.813 160.84 154.813 158.76C154.813 155.74 156.898 153.206 159.707 152.519C159.597 147.327 157.744 142.321 153.743 138.26Z" fill="#F24E1E"/>
<path d="M118.23 139.471C117.711 139.075 117.328 138.508 117.166 137.855C117.166 137.855 117.166 137.855 117.166 137.855C117.109 137.629 117.079 137.392 117.079 137.148C117.079 135.535 118.387 134.227 120 134.227C121.613 134.227 122.921 135.535 122.921 137.148C122.921 137.863 122.663 138.519 122.236 139.027C121.767 139.584 121.093 139.964 120.33 140.05C120.222 140.062 120.111 140.068 120 140.068C119.888 140.068 119.778 140.062 119.67 140.05C119.132 139.99 118.639 139.783 118.23 139.471Z" fill="#F24E1E"/>
<path d="M119.998 199.766C120.05 199.766 120.102 199.767 120.153 199.77C121.694 199.851 122.918 201.126 122.918 202.686C122.918 204.3 121.611 205.607 119.998 205.607C118.385 205.607 117.077 204.3 117.077 202.686C117.077 201.073 118.385 199.766 119.998 199.766Z" fill="#F24E1E"/>
<path d="M158.673 160.157C158.446 159.742 158.318 159.266 158.318 158.76C158.318 157.812 158.769 156.97 159.469 156.436C159.96 156.062 160.573 155.84 161.238 155.84C162.851 155.84 164.159 157.147 164.159 158.76C164.159 160.373 162.851 161.681 161.238 161.681C160.131 161.681 159.168 161.065 158.673 160.157Z" fill="#F24E1E"/>
<path d="M78.7616 161.681C80.3746 161.681 81.6822 160.373 81.6822 158.76C81.6822 157.147 80.3746 155.84 78.7616 155.84C77.1486 155.84 75.8411 157.147 75.8411 158.76C75.8411 160.373 77.1486 161.681 78.7616 161.681Z" fill="#F24E1E"/>
<path fill-rule="evenodd" clip-rule="evenodd" d="M164.391 153.161C164.452 146.684 162.281 140.264 157.069 134.974C147.253 125.009 133.74 125.734 123.512 131.767C122.503 131.107 121.296 130.723 120 130.723C118.704 130.723 117.497 131.107 116.488 131.767C106.26 125.734 92.7473 125.009 82.9311 134.974C77.7194 140.264 75.5479 146.684 75.6087 153.161C73.6553 154.263 72.3364 156.358 72.3364 158.761C72.3364 162.107 74.8947 164.856 78.1622 165.158C79.5646 168.533 81.4909 171.721 83.8058 174.542C92.2013 184.771 103.269 193.591 113.754 201.164C113.635 201.652 113.572 202.162 113.572 202.687C113.572 206.235 116.449 209.112 119.998 209.112C123.546 209.112 126.423 206.235 126.423 202.687C126.423 202.163 126.36 201.654 126.242 201.167C136.728 193.593 147.798 184.772 156.194 174.542C158.509 171.721 160.435 168.533 161.838 165.158C165.105 164.856 167.664 162.107 167.664 158.761C167.664 156.358 166.345 154.263 164.391 153.161ZM126.23 135.571C126.23 135.571 126.23 135.571 126.23 135.571C134.96 130.557 145.964 130.364 153.743 138.26C153.743 138.26 153.743 138.26 153.743 138.26C157.494 142.067 159.357 146.705 159.666 151.548C159.686 151.871 159.7 152.194 159.707 152.519C156.898 153.206 154.813 155.74 154.813 158.761C154.813 160.58 155.569 162.223 156.785 163.392C156.958 163.559 157.141 163.716 157.333 163.863C156.146 166.577 154.542 169.185 152.585 171.57C144.583 181.321 133.931 189.84 123.557 197.337C122.538 196.657 121.314 196.261 119.998 196.261C118.682 196.261 117.459 196.657 116.44 197.335C106.067 189.838 95.4168 181.32 87.4151 171.57C86.4974 170.452 85.6574 169.285 84.9018 168.081C84.0457 166.716 83.2978 165.305 82.6673 163.863C82.6673 163.863 82.6673 163.863 82.6673 163.863C84.1992 162.689 85.1869 160.84 85.1869 158.76C85.1869 158.562 85.1779 158.366 85.1604 158.173C85.111 157.629 84.9938 157.104 84.8173 156.607C84.0993 154.588 82.3999 153.034 80.2929 152.519C80.4033 147.327 82.2559 142.321 86.2568 138.26C94.0358 130.364 105.04 130.557 113.77 135.571C113.642 136.075 113.575 136.604 113.575 137.148C113.575 137.342 113.583 137.535 113.6 137.725C113.66 138.402 113.826 139.049 114.08 139.649C115.055 141.955 117.339 143.573 120 143.573C123.549 143.573 126.425 140.697 126.425 137.148C126.425 136.977 126.419 136.808 126.405 136.64C126.377 136.274 126.318 135.917 126.23 135.571ZM118.23 139.471C117.711 139.075 117.328 138.508 117.166 137.855C117.109 137.629 117.079 137.392 117.079 137.148C117.079 135.535 118.387 134.227 120 134.227C121.613 134.227 122.921 135.535 122.921 137.148C122.921 137.863 122.663 138.519 122.236 139.027C121.767 139.584 121.093 139.964 120.33 140.05C120.222 140.062 120.112 140.068 120 140.068C119.888 140.068 119.778 140.062 119.67 140.05C119.132 139.99 118.639 139.783 118.23 139.471ZM120.153 199.77C120.102 199.767 120.05 199.766 119.998 199.766C118.385 199.766 117.077 201.074 117.077 202.687C117.077 204.3 118.385 205.607 119.998 205.607C121.611 205.607 122.918 204.3 122.918 202.687C122.918 201.126 121.694 199.851 120.153 199.77ZM158.673 160.157C158.446 159.742 158.318 159.266 158.318 158.76C158.318 157.812 158.769 156.97 159.469 156.436C159.96 156.062 160.573 155.84 161.238 155.84C162.851 155.84 164.159 157.147 164.159 158.76C164.159 160.373 162.851 161.681 161.238 161.681C160.131 161.681 159.168 161.065 158.673 160.157ZM81.6822 158.76C81.6822 160.373 80.3746 161.681 78.7617 161.681C77.1487 161.681 75.8411 160.373 75.8411 158.76C75.8411 157.147 77.1487 155.84 78.7617 155.84C80.3746 155.84 81.6822 157.147 81.6822 158.76Z" fill="white"/>
<path d="M80.293 152.519C80.293 152.519 80.293 152.519 80.293 152.519V152.519Z" fill="#F24E1E"/>
<path d="M113.77 135.571C113.77 135.571 113.77 135.571 113.77 135.571V135.571Z" fill="#F24E1E"/>
<path fill-rule="evenodd" clip-rule="evenodd" d="M70 158.761C70 155.991 71.286 153.523 73.2869 151.92C73.5021 145.303 75.9217 138.76 81.2667 133.334C91.6633 122.781 105.775 123.288 116.523 129.104C117.591 128.642 118.767 128.386 120 128.386C121.233 128.386 122.409 128.642 123.477 129.104C134.225 123.288 148.337 122.78 158.733 133.334C164.078 138.76 166.498 145.303 166.713 151.92C168.714 153.523 170 155.991 170 158.761C170 162.824 167.235 166.24 163.483 167.232C162.048 170.385 160.187 173.359 158 176.024C149.715 186.119 138.942 194.812 128.748 202.236C128.756 202.385 128.759 202.536 128.759 202.687C128.759 207.526 124.837 211.449 119.998 211.449C115.159 211.449 111.236 207.526 111.236 202.687C111.236 202.535 111.24 202.383 111.248 202.233C101.055 194.81 90.2839 186.118 81.9998 176.024C79.8128 173.359 77.9516 170.385 76.5167 167.232C72.7647 166.24 70 162.824 70 158.761ZM82.9311 134.974C78.0234 139.955 75.8116 145.939 75.621 152.028C75.6092 152.405 75.6052 152.783 75.6087 153.161C75.4298 153.262 75.2561 153.371 75.0884 153.488C73.4248 154.649 72.3364 156.578 72.3364 158.761C72.3364 161.914 74.6086 164.538 77.6053 165.082C77.7883 165.116 77.9741 165.141 78.1622 165.158C78.2836 165.451 78.409 165.742 78.5382 166.031C79.9011 169.083 81.6914 171.965 83.8059 174.542C92.2013 184.771 103.269 193.591 113.754 201.164C113.635 201.652 113.572 202.162 113.572 202.687C113.572 206.235 116.449 209.112 119.998 209.112C123.546 209.112 126.423 206.235 126.423 202.687C126.423 202.163 126.36 201.654 126.242 201.167C136.728 193.593 147.798 184.773 156.194 174.542C158.309 171.965 160.099 169.083 161.462 166.031C161.591 165.742 161.716 165.451 161.838 165.158C162.026 165.141 162.212 165.116 162.395 165.082C165.391 164.538 167.664 161.914 167.664 158.761C167.664 156.578 166.575 154.649 164.912 153.488C164.744 153.371 164.57 153.262 164.391 153.161C164.395 152.783 164.391 152.405 164.379 152.028C164.188 145.939 161.977 139.955 157.069 134.974C147.253 125.009 133.74 125.734 123.512 131.767C122.503 131.107 121.296 130.723 120 130.723C118.704 130.723 117.497 131.107 116.488 131.767C106.26 125.734 92.7473 125.009 82.9311 134.974Z" fill="#F24E1E"/>
</svg>
