<svg width="240" height="336" viewBox="0 0 240 336" fill="none" xmlns="http://www.w3.org/2000/svg">
<rect width="240" height="336" rx="11" fill="white"/>
<rect width="240" height="336" rx="11" fill="white"/>
<path d="M208.536 283C211.827 283 214.575 283.81 216.745 285.468C218.915 287.126 220 289.337 220 292.1C220 296.3 217.505 299.505 212.55 301.716C216.745 304 218.843 306.689 218.843 309.821C218.843 312.289 217.866 314.279 215.877 315.753C213.888 317.226 211.465 318 208.536 318C205.571 318 203.112 317.263 201.123 315.753C199.134 314.242 198.157 312.253 198.157 309.821C198.157 306.726 200.255 304.037 204.45 301.716C199.495 299.505 197 296.3 197 292.1C197 289.3 198.085 287.089 200.255 285.468C202.425 283.847 205.173 283 208.536 283ZM208.536 299.579C212.948 297.884 215.154 295.416 215.154 292.137C215.154 290.074 214.539 288.637 213.31 287.753C212.08 286.905 210.489 286.463 208.536 286.463C206.547 286.463 204.92 286.905 203.69 287.753C202.461 288.6 201.846 290.074 201.846 292.137C201.846 295.379 204.088 297.884 208.536 299.579ZM208.536 314.574C210.127 314.574 211.429 314.168 212.478 313.358C213.491 312.547 213.997 311.368 213.997 309.821C213.997 307.316 212.189 305.179 208.536 303.447C204.847 305.216 203.039 307.316 203.039 309.821C203.039 311.368 203.546 312.547 204.558 313.358C205.571 314.168 206.873 314.574 208.536 314.574Z" fill="#222222"/>
<path d="M209.028 252.312L216.54 261.064L209.028 269.84L201.516 261.064L209.028 252.312Z" fill="#F24E1E"/>
<path d="M31.4638 53C28.1729 53 25.4246 52.1895 23.2547 50.5316C21.0849 48.8737 20 46.6632 20 43.9C20 39.7 22.4953 36.4948 27.4497 34.2843C23.2547 32 21.1573 29.3105 21.1573 26.179C21.1573 23.7105 22.1336 21.7211 24.1226 20.2474C26.1116 18.7737 28.5346 18 31.4638 18C34.4292 18 36.8884 18.7369 38.8774 20.2474C40.8664 21.758 41.8428 23.7474 41.8428 26.179C41.8428 29.2737 39.7453 31.9632 35.5503 34.2843C40.5047 36.4948 43 39.7 43 43.9C43 46.7 41.9151 48.9106 39.7453 50.5316C37.5755 52.1527 34.827 53 31.4638 53ZM31.4638 36.4211C27.0519 38.1158 24.8459 40.5843 24.8459 43.8632C24.8459 45.9264 25.4607 47.3632 26.6903 48.2474C27.9198 49.0948 29.511 49.5369 31.4638 49.5369C33.4528 49.5369 35.0802 49.0948 36.3098 48.2474C37.5393 47.4001 38.1541 45.9264 38.1541 43.8632C38.1541 40.6211 35.9119 38.1158 31.4638 36.4211ZM31.4638 21.4264C29.8726 21.4264 28.5708 21.8316 27.522 22.6421C26.5094 23.4527 26.0032 24.6316 26.0032 26.179C26.0032 28.6842 27.8113 30.8211 31.4638 32.5527C35.1525 30.7843 36.9607 28.6842 36.9607 26.179C36.9607 24.6316 36.4544 23.4527 35.4418 22.6421C34.4293 21.8316 33.1274 21.4264 31.4638 21.4264Z" fill="#222222"/>
<path d="M30.9719 83.6878L23.46 74.9364L30.9719 66.1599L38.4839 74.9364L30.9719 83.6878Z" fill="#F24E1E"/>
<path d="M116.579 197.506L95.7014 173.184C97.2138 172.008 98.1869 170.171 98.1869 168.108C98.1869 166.12 97.2847 164.344 95.8676 163.165L116.592 138.952C117.655 139.729 118.964 140.187 120.381 140.187C121.799 140.187 123.11 139.728 124.172 138.95L144.899 163.165C143.482 164.344 142.579 166.12 142.579 168.108C142.579 170.171 143.552 172.008 145.065 173.184L124.185 197.509C123.12 196.725 121.805 196.262 120.381 196.262C118.958 196.262 117.644 196.724 116.579 197.506Z" fill="#F24E1E"/>
<path fill-rule="evenodd" clip-rule="evenodd" d="M90.9414 161.734L114.032 134.756C113.982 134.432 113.956 134.1 113.956 133.762C113.956 130.213 116.832 127.336 120.381 127.336H120.383C123.931 127.338 126.806 130.214 126.806 133.762C126.806 134.098 126.78 134.429 126.73 134.752L149.825 161.734C152.986 162.137 155.43 164.837 155.43 168.107C155.43 168.165 155.429 168.223 155.428 168.28L155.43 168.283L155.427 168.285C155.344 171.362 153.097 173.899 150.153 174.43L126.733 201.715C126.781 202.032 126.806 202.356 126.806 202.687C126.806 206.235 123.931 209.111 120.383 209.112H120.381C116.832 209.112 113.956 206.235 113.956 202.687C113.956 202.355 113.981 202.029 114.029 201.71L90.6135 174.43C87.6694 173.899 85.4225 171.362 85.3388 168.285L85.3364 168.283L85.3387 168.28C85.3372 168.223 85.3364 168.165 85.3364 168.107C85.3364 164.837 87.7802 162.137 90.9414 161.734ZM116.579 197.506L95.7014 173.183C97.2138 172.008 98.1869 170.171 98.1869 168.107C98.1869 166.12 97.2847 164.344 95.8675 163.165L116.592 138.952C117.655 139.728 118.964 140.187 120.381 140.187C121.799 140.187 123.11 139.728 124.172 138.95L144.899 163.165C143.482 164.344 142.579 166.12 142.579 168.107C142.579 170.171 143.552 172.008 145.065 173.183L124.185 197.508C123.12 196.725 121.805 196.262 120.381 196.262C118.958 196.262 117.644 196.724 116.579 197.506ZM120.381 136.682C119.835 136.682 119.324 136.532 118.886 136.271C118.032 135.762 117.46 134.828 117.46 133.762C117.46 132.149 118.768 130.841 120.381 130.841C121.994 130.841 123.301 132.149 123.301 133.762C123.301 134.827 122.731 135.76 121.878 136.27C121.441 136.532 120.928 136.682 120.381 136.682ZM118.877 200.183C118.028 200.694 117.46 201.624 117.46 202.687C117.46 204.3 118.768 205.607 120.381 205.607C121.994 205.607 123.301 204.3 123.301 202.687C123.301 201.625 122.735 200.696 121.888 200.185C121.448 199.919 120.932 199.766 120.381 199.766C119.831 199.766 119.316 199.918 118.877 200.183ZM94.6822 168.107C94.6822 169.108 94.1793 169.991 93.4126 170.517C92.943 170.839 92.3743 171.028 91.7617 171.028C90.1487 171.028 88.8411 169.72 88.8411 168.107C88.8411 166.494 90.1487 165.187 91.7617 165.187C92.4528 165.187 93.0879 165.427 93.588 165.828C94.2551 166.364 94.6822 167.186 94.6822 168.107ZM147.354 170.517C146.587 169.991 146.084 169.108 146.084 168.107C146.084 167.186 146.511 166.364 147.178 165.828C147.678 165.427 148.314 165.187 149.005 165.187C150.618 165.187 151.925 166.494 151.925 168.107C151.925 169.72 150.618 171.028 149.005 171.028C148.392 171.028 147.823 170.839 147.354 170.517Z" fill="white"/>
<path fill-rule="evenodd" clip-rule="evenodd" d="M83 168.107C83 168.146 83.0003 168.185 83.0008 168.223C82.9987 168.305 83.0009 168.386 83.0073 168.467C83.1629 172.308 85.7868 175.507 89.335 176.528L111.621 202.492C111.62 202.557 111.619 202.622 111.619 202.687C111.619 207.526 115.542 211.449 120.381 211.449H120.384C125.222 211.447 129.143 207.525 129.143 202.687C129.143 202.623 129.142 202.56 129.141 202.497L151.431 176.528C154.98 175.507 157.603 172.308 157.759 168.467C157.765 168.386 157.768 168.305 157.766 168.223C157.766 168.185 157.766 168.146 157.766 168.107C157.766 163.977 154.911 160.517 151.065 159.59L129.14 133.974C129.142 133.904 129.143 133.833 129.143 133.762C129.143 128.924 125.222 125.002 120.384 125H120.381C115.542 125 111.619 128.923 111.619 133.762C111.619 133.834 111.62 133.907 111.622 133.979L89.7013 159.59C85.8558 160.517 83 163.977 83 168.107ZM85.3389 168.285L85.3364 168.283L85.3387 168.28C85.3372 168.223 85.3364 168.165 85.3364 168.107C85.3364 164.837 87.7802 162.137 90.9415 161.734L114.032 134.756C113.982 134.432 113.956 134.1 113.956 133.762C113.956 130.213 116.832 127.336 120.381 127.336H120.383C123.931 127.338 126.806 130.214 126.806 133.762C126.806 134.098 126.78 134.429 126.73 134.752L149.825 161.734C152.986 162.137 155.43 164.837 155.43 168.107C155.43 168.165 155.429 168.223 155.428 168.28L155.43 168.283L155.427 168.285C155.344 171.362 153.097 173.899 150.153 174.43L126.733 201.715C126.781 202.032 126.806 202.356 126.806 202.687C126.806 206.235 123.931 209.111 120.383 209.112H120.381C116.832 209.112 113.956 206.235 113.956 202.687C113.956 202.355 113.981 202.029 114.029 201.71L90.6135 174.43C87.6694 173.899 85.4225 171.362 85.3389 168.285Z" fill="#F24E1E"/>
<path d="M120.381 130.841C121.994 130.841 123.301 132.149 123.301 133.762C123.301 135.375 121.994 136.682 120.381 136.682C118.768 136.682 117.46 135.375 117.46 133.762C117.46 132.149 118.768 130.841 120.381 130.841Z" fill="#F24E1E"/>
<path d="M91.7616 165.187C93.3746 165.187 94.6822 166.494 94.6822 168.107C94.6822 169.72 93.3746 171.028 91.7616 171.028C90.1486 171.028 88.8411 169.72 88.8411 168.107C88.8411 166.494 90.1486 165.187 91.7616 165.187Z" fill="#F24E1E"/>
<path d="M149.005 165.187C150.618 165.187 151.925 166.494 151.925 168.107C151.925 169.72 150.618 171.028 149.005 171.028C147.392 171.028 146.084 169.72 146.084 168.107C146.084 166.494 147.392 165.187 149.005 165.187Z" fill="#F24E1E"/>
<path d="M123.301 202.687C123.301 204.3 121.994 205.607 120.381 205.607C118.768 205.607 117.46 204.3 117.46 202.687C117.46 201.074 118.768 199.766 120.381 199.766C121.994 199.766 123.301 201.074 123.301 202.687Z" fill="#F24E1E"/>
</svg>
