<svg width="240" height="336" viewBox="0 0 240 336" fill="none" xmlns="http://www.w3.org/2000/svg">
<rect width="240" height="336" rx="11" fill="white"/>
<rect width="240" height="336" rx="11" fill="white"/>
<path d="M220 307.29C220 310.676 218.978 313.326 216.899 315.203C214.856 317.08 212.229 318 209.018 318C206.027 318 203.473 317.08 201.284 315.203C199.095 313.326 198 310.198 198 305.745V295.697C198 291.391 199.058 288.226 201.138 286.128C203.217 284.067 206.027 283 209.529 283C213.469 283 216.68 284.546 219.197 287.674L215.184 289.698C213.944 287.527 212.083 286.459 209.566 286.459C207.486 286.459 205.844 287.122 204.677 288.41C203.509 289.698 202.889 292.127 202.889 295.624V300.371C204.531 297.869 207.085 296.617 210.478 296.617C213.323 296.617 215.622 297.537 217.373 299.341C219.124 301.144 220 303.794 220 307.29ZM215.075 307.327C215.075 304.53 214.564 302.616 213.542 301.623C212.521 300.629 211.207 300.114 209.566 300.114C206.063 300.114 203.801 301.88 202.852 305.376C202.852 309.278 203.436 311.78 204.604 312.884C205.771 313.988 207.231 314.54 208.982 314.54C210.66 314.54 212.083 313.988 213.287 312.884C214.491 311.78 215.075 309.903 215.075 307.327Z" fill="#222222"/>
<path d="M209.028 252.312L216.54 261.064L209.028 269.84L201.516 261.064L209.028 252.312Z" fill="#F24E1E"/>
<path d="M20 28.7098C20 25.3239 21.0215 22.674 23.1011 20.797C25.1442 18.92 27.7711 18 30.9817 18C33.9734 18 36.5273 18.92 38.7164 20.797C40.9054 22.674 42 25.8023 42 30.2555V40.3029C42 44.6089 40.942 47.774 38.8624 49.8718C36.7827 51.9328 33.9735 53 30.471 53C26.5307 53 23.3201 51.4543 20.8027 48.326L24.8159 46.3019C26.0564 48.4733 27.9171 49.5406 30.4345 49.5406C32.5141 49.5406 34.1559 48.878 35.3234 47.5899C36.4909 46.3018 37.1111 43.8728 37.1111 40.3764V35.6288C35.4693 38.1314 32.9154 39.3828 29.5224 39.3828C26.6766 39.3828 24.3781 38.4627 22.6269 36.6594C20.8756 34.856 20 32.2061 20 28.7098ZM24.9253 28.673C24.9253 31.47 25.4361 33.3838 26.4577 34.3775C27.4792 35.3712 28.7927 35.8864 30.4345 35.8864C33.937 35.8864 36.199 34.1199 37.1476 30.6236C37.1476 26.7224 36.5639 24.2197 35.3964 23.1156C34.2289 22.0115 32.7694 21.4595 31.0182 21.4595C29.3399 21.4595 27.9171 22.0115 26.7131 23.1156C25.5091 24.2197 24.9253 26.0967 24.9253 28.673Z" fill="#222222"/>
<path d="M30.9719 83.6878L23.46 74.9364L30.9719 66.1599L38.4839 74.9364L30.9719 83.6878Z" fill="#F24E1E"/>
<path d="M116.579 197.506L95.7014 173.184C97.2138 172.008 98.1869 170.171 98.1869 168.108C98.1869 166.12 97.2847 164.344 95.8676 163.165L116.592 138.952C117.655 139.729 118.964 140.187 120.381 140.187C121.799 140.187 123.11 139.728 124.172 138.95L144.899 163.165C143.482 164.344 142.579 166.12 142.579 168.108C142.579 170.171 143.552 172.008 145.065 173.184L124.185 197.509C123.12 196.725 121.805 196.262 120.381 196.262C118.958 196.262 117.644 196.724 116.579 197.506Z" fill="#F24E1E"/>
<path fill-rule="evenodd" clip-rule="evenodd" d="M90.9414 161.734L114.032 134.756C113.982 134.432 113.956 134.1 113.956 133.762C113.956 130.213 116.832 127.336 120.381 127.336H120.383C123.931 127.338 126.806 130.214 126.806 133.762C126.806 134.098 126.78 134.429 126.73 134.752L149.825 161.734C152.986 162.137 155.43 164.837 155.43 168.107C155.43 168.165 155.429 168.223 155.428 168.28L155.43 168.283L155.427 168.285C155.344 171.362 153.097 173.899 150.153 174.43L126.733 201.715C126.781 202.032 126.806 202.356 126.806 202.687C126.806 206.235 123.931 209.111 120.383 209.112H120.381C116.832 209.112 113.956 206.235 113.956 202.687C113.956 202.355 113.981 202.029 114.029 201.71L90.6135 174.43C87.6694 173.899 85.4225 171.362 85.3388 168.285L85.3364 168.283L85.3387 168.28C85.3372 168.223 85.3364 168.165 85.3364 168.107C85.3364 164.837 87.7802 162.137 90.9414 161.734ZM116.579 197.506L95.7014 173.183C97.2138 172.008 98.1869 170.171 98.1869 168.107C98.1869 166.12 97.2847 164.344 95.8675 163.165L116.592 138.952C117.655 139.728 118.964 140.187 120.381 140.187C121.799 140.187 123.11 139.728 124.172 138.95L144.899 163.165C143.482 164.344 142.579 166.12 142.579 168.107C142.579 170.171 143.552 172.008 145.065 173.183L124.185 197.508C123.12 196.725 121.805 196.262 120.381 196.262C118.958 196.262 117.644 196.724 116.579 197.506ZM120.381 136.682C119.835 136.682 119.324 136.532 118.886 136.271C118.032 135.762 117.46 134.828 117.46 133.762C117.46 132.149 118.768 130.841 120.381 130.841C121.994 130.841 123.301 132.149 123.301 133.762C123.301 134.827 122.731 135.76 121.878 136.27C121.441 136.532 120.928 136.682 120.381 136.682ZM118.877 200.183C118.028 200.694 117.46 201.624 117.46 202.687C117.46 204.3 118.768 205.607 120.381 205.607C121.994 205.607 123.301 204.3 123.301 202.687C123.301 201.625 122.735 200.696 121.888 200.185C121.448 199.919 120.932 199.766 120.381 199.766C119.831 199.766 119.316 199.918 118.877 200.183ZM94.6822 168.107C94.6822 169.108 94.1793 169.991 93.4126 170.517C92.943 170.839 92.3743 171.028 91.7617 171.028C90.1487 171.028 88.8411 169.72 88.8411 168.107C88.8411 166.494 90.1487 165.187 91.7617 165.187C92.4528 165.187 93.0879 165.427 93.588 165.828C94.2551 166.364 94.6822 167.186 94.6822 168.107ZM147.354 170.517C146.587 169.991 146.084 169.108 146.084 168.107C146.084 167.186 146.511 166.364 147.178 165.828C147.678 165.427 148.314 165.187 149.005 165.187C150.618 165.187 151.925 166.494 151.925 168.107C151.925 169.72 150.618 171.028 149.005 171.028C148.392 171.028 147.823 170.839 147.354 170.517Z" fill="white"/>
<path fill-rule="evenodd" clip-rule="evenodd" d="M83 168.107C83 168.146 83.0003 168.185 83.0008 168.223C82.9987 168.305 83.0009 168.386 83.0073 168.467C83.1629 172.308 85.7868 175.507 89.335 176.528L111.621 202.492C111.62 202.557 111.619 202.622 111.619 202.687C111.619 207.526 115.542 211.449 120.381 211.449H120.384C125.222 211.447 129.143 207.525 129.143 202.687C129.143 202.623 129.142 202.56 129.141 202.497L151.431 176.528C154.98 175.507 157.603 172.308 157.759 168.467C157.765 168.386 157.768 168.305 157.766 168.223C157.766 168.185 157.766 168.146 157.766 168.107C157.766 163.977 154.911 160.517 151.065 159.59L129.14 133.974C129.142 133.904 129.143 133.833 129.143 133.762C129.143 128.924 125.222 125.002 120.384 125H120.381C115.542 125 111.619 128.923 111.619 133.762C111.619 133.834 111.62 133.907 111.622 133.979L89.7013 159.59C85.8558 160.517 83 163.977 83 168.107ZM85.3389 168.285L85.3364 168.283L85.3387 168.28C85.3372 168.223 85.3364 168.165 85.3364 168.107C85.3364 164.837 87.7802 162.137 90.9415 161.734L114.032 134.756C113.982 134.432 113.956 134.1 113.956 133.762C113.956 130.213 116.832 127.336 120.381 127.336H120.383C123.931 127.338 126.806 130.214 126.806 133.762C126.806 134.098 126.78 134.429 126.73 134.752L149.825 161.734C152.986 162.137 155.43 164.837 155.43 168.107C155.43 168.165 155.429 168.223 155.428 168.28L155.43 168.283L155.427 168.285C155.344 171.362 153.097 173.899 150.153 174.43L126.733 201.715C126.781 202.032 126.806 202.356 126.806 202.687C126.806 206.235 123.931 209.111 120.383 209.112H120.381C116.832 209.112 113.956 206.235 113.956 202.687C113.956 202.355 113.981 202.029 114.029 201.71L90.6135 174.43C87.6694 173.899 85.4225 171.362 85.3389 168.285Z" fill="#F24E1E"/>
<path d="M120.381 130.841C121.994 130.841 123.301 132.149 123.301 133.762C123.301 135.375 121.994 136.682 120.381 136.682C118.768 136.682 117.46 135.375 117.46 133.762C117.46 132.149 118.768 130.841 120.381 130.841Z" fill="#F24E1E"/>
<path d="M91.7616 165.187C93.3746 165.187 94.6822 166.494 94.6822 168.107C94.6822 169.72 93.3746 171.028 91.7616 171.028C90.1486 171.028 88.8411 169.72 88.8411 168.107C88.8411 166.494 90.1486 165.187 91.7616 165.187Z" fill="#F24E1E"/>
<path d="M149.005 165.187C150.618 165.187 151.925 166.494 151.925 168.107C151.925 169.72 150.618 171.028 149.005 171.028C147.392 171.028 146.084 169.72 146.084 168.107C146.084 166.494 147.392 165.187 149.005 165.187Z" fill="#F24E1E"/>
<path d="M123.301 202.687C123.301 204.3 121.994 205.607 120.381 205.607C118.768 205.607 117.46 204.3 117.46 202.687C117.46 201.074 118.768 199.766 120.381 199.766C121.994 199.766 123.301 201.074 123.301 202.687Z" fill="#F24E1E"/>
</svg>
