<svg width="240" height="336" viewBox="0 0 240 336" fill="none" xmlns="http://www.w3.org/2000/svg">
<rect width="240" height="336" rx="11" fill="white"/>
<rect width="240" height="336" rx="11" fill="white"/>
<path d="M198 293.37C198 288.175 200.051 284.811 204.153 283.279L200.908 277H206.203L209 282.457C212.244 282.457 214.892 283.354 216.942 285.11C218.993 286.867 220 289.633 220 293.407V307.087C220 310.861 218.993 313.627 216.942 315.384C214.892 317.14 212.244 318 209 318C205.756 318 203.108 317.14 201.058 315.384C199.007 313.627 198 310.861 198 307.087V293.37ZM202.997 293.557V307.012C202.997 309.852 203.519 311.796 204.6 312.88C205.681 313.926 207.173 314.449 209.037 314.449C210.902 314.449 212.393 313.926 213.437 312.88C214.481 311.833 215.003 309.852 215.003 307.012V293.557C215.003 290.567 214.481 288.549 213.437 287.502C212.393 286.456 210.902 285.932 209 285.932C207.136 285.932 205.681 286.456 204.6 287.502C203.519 288.586 202.997 290.604 202.997 293.557Z" fill="#222222"/>
<path d="M209.028 252.312L216.54 261.064L209.028 269.84L201.516 261.064L209.028 252.312Z" fill="#F24E1E"/>
<path d="M42 42.6299C42 47.825 39.9491 51.1887 35.8474 52.7211L39.0915 59H33.7966L31 53.5433C27.7559 53.5433 25.1085 52.6463 23.0576 50.8896C21.0068 49.133 20 46.3674 20 42.5926V28.9134C20 25.1386 21.0068 22.3729 23.0576 20.6163C25.1085 18.8597 27.7559 18 31 18C34.244 18 36.8915 18.8597 38.9424 20.6163C40.9932 22.3729 42 25.1386 42 28.9134V42.6299ZM37.0034 42.4431V28.9882C37.0034 26.1477 36.4813 24.2042 35.4 23.1203C34.3186 22.0738 32.8271 21.5506 30.9627 21.5506C29.0983 21.5506 27.6068 22.0738 26.5627 23.1203C25.5187 24.1668 24.9966 26.1477 24.9966 28.9882V42.4431C24.9966 45.433 25.5187 47.4512 26.5627 48.4977C27.6068 49.5442 29.0983 50.0675 31 50.0675C32.8644 50.0675 34.3186 49.5442 35.4 48.4977C36.4813 47.4139 37.0034 45.3957 37.0034 42.4431Z" fill="#222222"/>
<path d="M30.972 83.6878L23.46 74.9364L30.972 66.1599L38.4839 74.9364L30.972 83.6878Z" fill="#F24E1E"/>
<path d="M116.579 197.506L95.7015 173.184C97.2139 172.008 98.1869 170.171 98.1869 168.108C98.1869 166.12 97.2848 164.344 95.8676 163.165L116.592 138.952C117.655 139.729 118.964 140.187 120.381 140.187C121.799 140.187 123.11 139.728 124.172 138.95L144.899 163.165C143.482 164.344 142.579 166.12 142.579 168.108C142.579 170.171 143.553 172.008 145.065 173.184L124.185 197.509C123.12 196.725 121.805 196.262 120.381 196.262C118.958 196.262 117.644 196.724 116.579 197.506Z" fill="#F24E1E"/>
<path fill-rule="evenodd" clip-rule="evenodd" d="M90.9414 161.734L114.032 134.756C113.982 134.432 113.956 134.1 113.956 133.762C113.956 130.213 116.832 127.336 120.381 127.336H120.383C123.931 127.338 126.806 130.214 126.806 133.762C126.806 134.098 126.78 134.429 126.73 134.752L149.825 161.734C152.986 162.137 155.43 164.837 155.43 168.107C155.43 168.165 155.429 168.223 155.428 168.28L155.43 168.283L155.427 168.285C155.344 171.362 153.097 173.899 150.153 174.43L126.733 201.715C126.781 202.032 126.806 202.356 126.806 202.687C126.806 206.235 123.931 209.111 120.383 209.112H120.381C116.832 209.112 113.956 206.235 113.956 202.687C113.956 202.355 113.981 202.029 114.029 201.71L90.6135 174.43C87.6694 173.899 85.4225 171.362 85.3388 168.285L85.3364 168.283L85.3387 168.28C85.3372 168.223 85.3364 168.165 85.3364 168.107C85.3364 164.837 87.7802 162.137 90.9414 161.734ZM116.579 197.506L95.7014 173.183C97.2138 172.008 98.1869 170.171 98.1869 168.107C98.1869 166.12 97.2847 164.344 95.8675 163.165L116.592 138.952C117.655 139.728 118.964 140.187 120.381 140.187C121.799 140.187 123.11 139.728 124.172 138.95L144.899 163.165C143.482 164.344 142.579 166.12 142.579 168.107C142.579 170.171 143.552 172.008 145.065 173.183L124.185 197.508C123.12 196.725 121.805 196.262 120.381 196.262C118.958 196.262 117.644 196.724 116.579 197.506ZM120.381 136.682C119.835 136.682 119.324 136.532 118.886 136.271C118.032 135.762 117.46 134.828 117.46 133.762C117.46 132.149 118.768 130.841 120.381 130.841C121.994 130.841 123.301 132.149 123.301 133.762C123.301 134.827 122.731 135.76 121.878 136.27C121.441 136.532 120.928 136.682 120.381 136.682ZM118.877 200.183C118.028 200.694 117.46 201.624 117.46 202.687C117.46 204.3 118.768 205.607 120.381 205.607C121.994 205.607 123.301 204.3 123.301 202.687C123.301 201.625 122.735 200.696 121.888 200.185C121.448 199.919 120.932 199.766 120.381 199.766C119.831 199.766 119.316 199.918 118.877 200.183ZM94.6822 168.107C94.6822 169.108 94.1793 169.991 93.4126 170.517C92.943 170.839 92.3743 171.028 91.7617 171.028C90.1487 171.028 88.8411 169.72 88.8411 168.107C88.8411 166.494 90.1487 165.187 91.7617 165.187C92.4528 165.187 93.0879 165.427 93.588 165.828C94.2551 166.364 94.6822 167.186 94.6822 168.107ZM147.354 170.517C146.587 169.991 146.084 169.108 146.084 168.107C146.084 167.186 146.511 166.364 147.178 165.828C147.678 165.427 148.314 165.187 149.005 165.187C150.618 165.187 151.925 166.494 151.925 168.107C151.925 169.72 150.618 171.028 149.005 171.028C148.392 171.028 147.823 170.839 147.354 170.517Z" fill="white"/>
<path fill-rule="evenodd" clip-rule="evenodd" d="M83 168.107C83 168.146 83.0003 168.185 83.0008 168.223C82.9987 168.305 83.0009 168.386 83.0073 168.467C83.1629 172.308 85.7868 175.507 89.335 176.528L111.621 202.492C111.62 202.557 111.619 202.622 111.619 202.687C111.619 207.526 115.542 211.449 120.381 211.449H120.384C125.222 211.447 129.143 207.525 129.143 202.687C129.143 202.623 129.142 202.56 129.141 202.497L151.431 176.528C154.98 175.507 157.603 172.308 157.759 168.467C157.765 168.386 157.768 168.305 157.766 168.223C157.766 168.185 157.766 168.146 157.766 168.107C157.766 163.977 154.911 160.517 151.065 159.59L129.14 133.974C129.142 133.904 129.143 133.833 129.143 133.762C129.143 128.924 125.222 125.002 120.384 125H120.381C115.542 125 111.619 128.923 111.619 133.762C111.619 133.834 111.62 133.907 111.622 133.979L89.7013 159.59C85.8558 160.517 83 163.977 83 168.107ZM85.3389 168.285L85.3364 168.283L85.3387 168.28C85.3372 168.223 85.3364 168.165 85.3364 168.107C85.3364 164.837 87.7802 162.137 90.9415 161.734L114.032 134.756C113.982 134.432 113.956 134.1 113.956 133.762C113.956 130.213 116.832 127.336 120.381 127.336H120.383C123.931 127.338 126.806 130.214 126.806 133.762C126.806 134.098 126.78 134.429 126.73 134.752L149.825 161.734C152.986 162.137 155.43 164.837 155.43 168.107C155.43 168.165 155.429 168.223 155.428 168.28L155.43 168.283L155.427 168.285C155.344 171.362 153.097 173.899 150.153 174.43L126.733 201.715C126.781 202.032 126.806 202.356 126.806 202.687C126.806 206.235 123.931 209.111 120.383 209.112H120.381C116.832 209.112 113.956 206.235 113.956 202.687C113.956 202.355 113.981 202.029 114.029 201.71L90.6135 174.43C87.6694 173.899 85.4225 171.362 85.3389 168.285Z" fill="#F24E1E"/>
<path d="M120.381 130.841C121.994 130.841 123.301 132.149 123.301 133.762C123.301 135.375 121.994 136.682 120.381 136.682C118.768 136.682 117.46 135.375 117.46 133.762C117.46 132.149 118.768 130.841 120.381 130.841Z" fill="#F24E1E"/>
<path d="M91.7617 165.187C93.3747 165.187 94.6822 166.494 94.6822 168.107C94.6822 169.72 93.3747 171.028 91.7617 171.028C90.1487 171.028 88.8411 169.72 88.8411 168.107C88.8411 166.494 90.1487 165.187 91.7617 165.187Z" fill="#F24E1E"/>
<path d="M149.005 165.187C150.618 165.187 151.925 166.494 151.925 168.107C151.925 169.72 150.618 171.028 149.005 171.028C147.392 171.028 146.084 169.72 146.084 168.107C146.084 166.494 147.392 165.187 149.005 165.187Z" fill="#F24E1E"/>
<path d="M123.301 202.687C123.301 204.3 121.994 205.607 120.381 205.607C118.768 205.607 117.46 204.3 117.46 202.687C117.46 201.074 118.768 199.766 120.381 199.766C121.994 199.766 123.301 201.074 123.301 202.687Z" fill="#F24E1E"/>
</svg>
